<svg width="498" height="498" viewBox="0 0 498 498" fill="none" xmlns="http://www.w3.org/2000/svg">
<circle cx="248.556" cy="248.556" r="248.556" fill="#0AB463"/>
<path d="M247.773 335.422L273.711 282.335C273.711 282.335 309.69 303.169 329.581 305.763C375.39 311.738 369.487 286.853 333.963 277.481C269.034 260.353 256.287 237.647 256.287 215.739C264.054 106.435 371.456 132.75 423.589 159.97C418.411 179.493 397.299 208.965 397.299 208.965C397.299 208.965 366.627 194.63 356.668 192.249C304.884 182.29 315.639 214.542 348.701 218.54C386.703 226.243 426.798 247.192 429.213 284.347C429.213 301.69 427.183 317.835 413.296 335.663C379.11 379.554 283.836 355.29 247.773 335.422Z" fill="white"/>
<path d="M74.9844 306.105L75 136.969H136.441L136.425 306.105L238.195 306.105V360.289H74.9844V306.105Z" fill="white"/>
</svg>
