<svg width="64" height="64" viewBox="0 0 64 64" fill="none" xmlns="http://www.w3.org/2000/svg">
<circle cx="32" cy="32" r="32" fill="black"/>
<path d="M16.3008 20.4492C15 20.4492 14 21.4492 14 22.8516C14 23.4492 14.1992 23.6484 14.3008 23.8516C14.5781 24.3555 15.8594 26.4492 15.8594 26.4492C15.9258 26.5469 15.9375 26.6172 15.957 26.75C16.0586 27.1484 15.7578 27.4492 15.3594 27.4492H9V30.4492H17.8008C19.1016 30.4492 20.1992 29.4492 20.1992 28.0469C20.1992 27.4492 20 27.25 19.9023 27.0469L18.2344 24.4492C18.1758 24.375 18.1328 24.25 18.1328 24.1484C18.1328 23.75 18.4336 23.4492 18.832 23.4492H23V30.4492H27V23.4492H31V20.4492H16.3008ZM33.3008 20.4492L30.0781 30.4492H33.3008L34 28.4492H37.1523L37.8477 30.4492H41L37.668 20.4492H33.3008ZM42 20.4492V30.4492H45V27.3398C45.6562 27.9648 47.2188 29.4492 48 30.1484C48.0977 30.25 48.3984 30.4492 48.7969 30.4492H55V27.4492H50.5977C50.3711 27.4492 50.2109 27.3828 50.0781 27.2891C50.0117 27.2266 49.9687 27.1875 49.918 27.1406C51.1406 26.5938 52 25.3711 52 23.9492C52 22.0234 50.4258 20.4492 48.5 20.4492H42ZM45 23.4492H48C48.2773 23.4492 48.5 23.6719 48.5 23.9492C48.5 24.2266 48.2773 24.4492 48 24.4492H45V23.4492ZM35.5664 23.8516L36.5742 26.4492H34.6992L35.5664 23.8516ZM9.39844 33.4492L12.7344 43.4492H15.1016L16.6719 38.8984L18.2461 43.4492H20.5977L23.9336 33.4492H20L19.0312 36.3516L18.0664 33.4492H14.6016L13.5469 36.3867L12.5664 33.4492H9.39844ZM26.3008 33.4492L23.0781 43.4492H26.3008L27 41.4492H30.1523L30.8477 43.4492H34L30.668 33.4492H26.3008ZM35 33.4492V43.4492H38V40.3359C38.6562 40.957 40.2227 42.4492 41 43.1484C41.1016 43.25 41.4023 43.4492 41.8008 43.4492H51.0977C52.3984 43.4492 53.5 42.5469 53.5 41.0469C53.5 40.4492 53.3008 40.25 53.1992 40.0469L51.5312 37.5469C51.5 37.4805 51.4336 37.3516 51.4336 37.25C51.4336 36.8516 51.7305 36.4492 52.0312 36.4492H55V33.4492H49.3008C48 33.4492 46.9023 34.5508 46.9023 35.9492C46.9023 36.5508 47.0977 36.75 47.1992 36.9492C47.4805 37.332 49 39.4492 49 39.4492C49.043 39.5508 49.0977 39.6484 49.0977 39.75C49.0977 40.1484 48.8008 40.4492 48.5 40.4492H43.5977C43.4258 40.4492 43.293 40.4062 43.1797 40.3477C43.0937 40.2539 43.0234 40.1797 42.9648 40.1172C44.1602 39.5586 45 38.3516 45 36.9492C45 35.0234 43.4258 33.4492 41.5 33.4492H35ZM38 36.4492H41C41.2773 36.4492 41.5 36.6719 41.5 36.9492C41.5 37.2266 41.2773 37.4492 41 37.4492H38V36.4492ZM28.5664 36.8516L29.5742 39.4492H27.6992L28.5664 36.8516Z" fill="#FFE81F"/>
</svg>
